inDegrees=no
num_controls=7
num_derivatives=13
num_iterations=32
num_multipliers=7
num_parameters=0
num_slacks=7
num_states=26
objective=0.450694
objective_accelerations=0.000000
objective_balance=0.009499
objective_effort=0.028111
objective_height=0.405210
objective_ligament=0.007874
solver_duration=477.902223
status=Solve_Succeeded
success=true
DataType=double
version=3
OpenSimVersion=4.5
endheader
time	/jointset/ground_pelvis/pelvis_tilt/value	/jointset/ground_pelvis/pelvis_tx/value	/jointset/ground_pelvis/pelvis_ty/value	/jointset/hip_l/hip_flexion_l/value	/jointset/hip_l/hip_adduction_l/value	/jointset/hip_l/hip_rotation_l/value	/jointset/back/lumbar_extension/value	/jointset/patellofemoral_l/patellar_flexion_l/value	/jointset/knee_l/knee_flexion_l/value	/jointset/knee_l/knee_adduction_l/value	/jointset/knee_l/knee_rotation_l/value	/jointset/ankle_l/ankle_angle_l/value	/jointset/subtalar_l/subtalar_angle_l/value	/jointset/ground_pelvis/pelvis_tilt/speed	/jointset/ground_pelvis/pelvis_tx/speed	/jointset/ground_pelvis/pelvis_ty/speed	/jointset/hip_l/hip_flexion_l/speed	/jointset/hip_l/hip_adduction_l/speed	/jointset/hip_l/hip_rotation_l/speed	/jointset/back/lumbar_extension/speed	/jointset/patellofemoral_l/patellar_flexion_l/speed	/jointset/knee_l/knee_flexion_l/speed	/jointset/knee_l/knee_adduction_l/speed	/jointset/knee_l/knee_rotation_l/speed	/jointset/ankle_l/ankle_angle_l/speed	/jointset/subtalar_l/subtalar_angle_l/speed	/forceset/tau_hip_flexion_l	/forceset/tau_hip_adduction_l	/forceset/tau_hip_rotation_l	/forceset/tau_knee_flexion_l	/forceset/tau_ankle_angle_l	/forceset/tau_subtalar_angle_l	/forceset/tau_lumbar_extension	lambda_cid13_p0	lambda_cid13_p1	lambda_cid13_p2	lambda_cid13_p3	lambda_cid13_p4	lambda_cid13_p5	lambda_cid14_p0	/jointset/ground_pelvis/pelvis_tilt/accel	/jointset/ground_pelvis/pelvis_tx/accel	/jointset/ground_pelvis/pelvis_ty/accel	/jointset/hip_l/hip_flexion_l/accel	/jointset/hip_l/hip_adduction_l/accel	/jointset/hip_l/hip_rotation_l/accel	/jointset/back/lumbar_extension/accel	/jointset/patellofemoral_l/patellar_flexion_l/accel	/jointset/knee_l/knee_flexion_l/accel	/jointset/knee_l/knee_adduction_l/accel	/jointset/knee_l/knee_rotation_l/accel	/jointset/ankle_l/ankle_angle_l/accel	/jointset/subtalar_l/subtalar_angle_l/accel	gamma_cid13_p0	gamma_cid13_p1	gamma_cid13_p2	gamma_cid13_p3	gamma_cid13_p4	gamma_cid13_p5	gamma_cid14_p0
1	-0.4765132202509419	-0.09769697956958821	0.7843876654713254	1.223671725602363	-0.2063238920468335	-0.008737594747028571	-0.3782785542087151	0.5143068145913069	0.5143068145913084	-0.02362498476238704	0.01854450289763008	-0.04522426722924728	0.03698404708933384	-0.1400176082621936	0.02115544500382725	-0.03957745602990213	0.2188571258137934	-0.1761228686069405	-0.04392871329320618	0.3293043239881838	0.1587059058910639	0.158705905891064	-0.2973272661200571	0.1883287952042895	0.0643366847067621	-0.157715282520599	-0.3044351925015732	0.08596941536648325	-0.005580041145347141	-0.1540036078338487	0.1767896807473583	-0.03103602562449074	0.271255780370851	12.47088655584839	12.65731541647722	-3.975994484405626	0.2268927002535271	-655.9469824642923	-9.506840379178744	-34.37713116916569	-2.033747170020386	0.277175659867451	-0.1118971685807383	1.59158586350686	0.1960111229397334	-0.000401266709422873	5.378731362448814	-0.1935618768219175	-0.1935618768219175	0.3793744992158173	-0.1171930346199353	0.2050045449935746	0.2410246946676891	-1.588020985295408e-08	-2.543392000958283e-08	-4.068541632111933e-08	1.652964135449507e-07	2.914418862507502e-08	-3.497244388280596e-08	3.413930515216757e-08
1.01	-0.4779955858553744	-0.09747105194255767	0.7839889422506837	1.225918269127734	-0.2080736522343943	-0.009177126177548548	-0.3747435977641466	0.515883594460971	0.5158835944609695	-0.02657614940544952	0.02042088626199172	-0.04456883138115075	0.03542107056314389	-0.1545438745026748	0.02408112304863529	-0.03990857356760569	0.2283401046743943	-0.1736665200095633	-0.04395604208156331	0.3750369368065061	0.1566004235677526	0.1566004235677528	-0.292616314522982	0.186807649577851	0.06693381045493375	-0.1546721637948691	-0.3019199157640325	0.08637876298629177	-0.005758260400322718	-0.1560174631702552	0.1774193762997114	-0.03092148889400529	0.2675364351970156	12.6890508128433	12.53604239997938	-3.918588576713721	0.53504122596842	-655.6606911058776	-9.449571131743511	-34.33408676687227	-0.875313831465084	0.3079265665628488	0.04506849088104358	0.3099388125161914	0.2948459462186926	-0.0006655588710461204	3.773022023233495	-0.2264912801295159	-0.226491280129453	0.560355453159226	-0.1906048275096265	0.3145668485015013	0.3671396307354425	1.016837557505957e-08	-1.407251356190134e-08	-2.81183000315198e-08	3.279891549900883e-08	-2.268914036488663e-08	-3.325265842269223e-08	1.617557093500552e-08
1.02	-0.4795658636183034	-0.09721433499712413	0.7835946653621145	1.22819629942474	-0.2097939690923635	-0.009616284270749372	-0.3708308160350549	0.5174378295333938	0.5174378295333949	-0.02947152453989115	0.02227785226992693	-0.04388192422381827	0.0338947620580532	-0.1576000399592534	0.0273133086844321	-0.03868818961542063	0.2251544801421818	-0.170234202688906	-0.04385404582881176	0.40486938089323	0.1541969464426901	0.1541969464426903	-0.2861693643976703	0.184445323917261	0.07063094655401078	-0.1503816783007459	-0.299404639026491	0.08678811060609425	-0.005936479655256189	-0.1580313185066663	0.1780490718520627	-0.03080695216352677	0.2638170900231798	12.90660107796932	12.41714065428599	-3.864146393212664	0.8284921237725803	-655.3885601885611	-9.392593264125251	-34.29167919175994	0.260272986759795	0.3384771780654585	0.1984031293970432	-0.9421348150558722	0.3912048675957043	0.02546374151229266	2.198697616128987	-0.2531608371721992	-0.2531608371721992	0.7265742048631211	-0.2854290414502229	0.4250066151749854	0.4904980483464155	1.885175090727836e-09	-3.927501671592135e-09	-2.156195734864858e-08	1.974575485455282e-08	-2.469618831799658e-08	-2.321082626764296e-08	8.571963449013003e-09
1.03	-0.4811194852878744	-0.09692406082675306	0.7832190383145061	1.230390282932018	-0.2114752609785173	-0.01005355781150272	-0.3666854847239374	0.5189666297769308	0.5189666297769289	-0.03229418071377439	0.02410693296535586	-0.0431534905239934	0.03241715678825673	-0.1521556930291686	0.03076676897285867	-0.03630067876359241	0.2125672273549912	-0.1658828417392996	-0.04358856481283838	0.4228371633979006	0.1515240891115184	0.1515240891115186	-0.2781094988112201	0.1812558309839915	0.07515439754509856	-0.1449756009215504	-0.2978503684185503	0.08719810199834653	-0.0061266034480283	-0.1594718279132721	0.1782884040511427	-0.03065600494854294	0.2614758886589321	12.99578206434671	12.29143106090282	-3.793231470875657	1.013885229011632	-655.3092680708805	-9.327962218323158	-34.24999983056266	0.8318048484825742	0.352568503006524	0.2794009866090284	-1.578271037752861	0.4783015081609234	0.02890879695188523	1.391860877318714	-0.2802003235627218	-0.2802003235626616	0.8835495697215207	-0.3529532940552826	0.4808036785958399	0.590229736296608	-6.74834973964844e-09	6.205098029356124e-09	-1.506694909033584e-08	7.911413979500423e-09	-2.619480483195469e-08	-1.308407526876777e-08	1.07407154191004e-09
1.04	-0.4825896056276863	-0.09659849444374287	0.7828713815601228	1.232426143805977	-0.2131087992952704	-0.01048781283903647	-0.3624012671258385	0.5204675310186619	0.5204675310186628	-0.0350286668649478	0.02590066995650241	-0.04237686444675393	0.03099852572297034	-0.1408997740050653	0.03437175121225897	-0.03309413097038945	0.1935299534797186	-0.1606834888089795	-0.04325034318438754	0.4326466382898962	0.148617146081424	0.1486171460814242	-0.2685353598573462	0.1773765830591248	0.08026942203699695	-0.1385868373987345	-0.2962960978106088	0.08760809339059282	-0.006316727240761443	-0.1609123373198824	0.1785277362502212	-0.03050505773356588	0.259134687294684	13.08297444057877	12.16958103924879	-3.726942619558381	1.175768338829831	-655.2706301485256	-9.265535638876514	-34.20908108037572	1.422587405563153	0.3687815682604741	0.3622105176720548	-2.232139032672327	0.5608032637384031	0.0400118640077618	0.5670360935937716	-0.2999779769567861	-0.2999779769567861	1.029428878347818	-0.4233800397696257	0.543321315337467	0.6870352770705448	-1.240885057917085e-08	1.07178055792423e-08	-1.106910548499017e-08	8.108596456994715e-09	-2.37717176390109e-08	-7.910161064957737e-09	-2.03557494997461e-09
1.05	-0.4839228013095378	-0.09623626435266509	0.7825592800666151	1.234244535866091	-0.2146862108313802	-0.01091837808203939	-0.3580534180997003	0.5219381967002088	0.5219381967002064	-0.03766002839720751	0.02765227817145986	-0.04154658674469122	0.02964846943059553	-0.1252043511010714	0.03808701232704004	-0.0292453932220879	0.1695483937719407	-0.1546664183614692	-0.04287227637724785	0.4361544452488625	0.1454779768274934	0.1454779768274936	-0.2574934775719758	0.1728546751615521	0.08584428317370131	-0.1312798058249502	-0.2950578146857521	0.08801659377951468	-0.006511782347267616	-0.162162294503961	0.178606524386217	-0.03034312099404073	0.2573617813339759	13.11796967196512	12.05013156203303	-3.658790869611615	1.308468706363889	-655.2807714799012	-9.201363398630837	-34.16899949323477	1.723268475007323	0.3748119245912674	0.408317360452997	-2.57117760054863	0.6420179453255298	0.0352720256448717	0.1273447432316548	-0.3265873781632155	-0.3265873781631589	1.178090755093854	-0.4801510677215021	0.5732901380774537	0.7742282631568741	-1.797644441897909e-08	1.505489149940782e-08	-7.149298275049712e-09	8.681764039256017e-09	-2.122607720522644e-08	-2.89102301099346e-09	-5.008088772633712e-09
1.06	-0.485082993013924	-0.09583649894213891	0.7822880883419995	1.235805109696976	-0.2161994798610003	-0.01134544906965758	-0.3536935526547376	0.5233763304935063	0.5233763304935073	-0.04017366653631215	0.0293559563268564	-0.0406588161062137	0.02837582168708349	-0.1062989785094536	0.04187881510194626	-0.02491217719199106	0.1419663076354442	-0.1478549875112304	-0.0425514921069995	0.4350499220551952	0.142110768431482	0.1421107684314822	-0.2449906812281159	0.1677905711451642	0.09176800932003118	-0.1231051276261846	-0.2938195315608942	0.08842509416843058	-0.006706837453739153	-0.1634122516880442	0.1786853125222116	-0.03018118425452218	0.2555888753732675	13.15022956862318	11.93528566438117	-3.596084306306505	1.413313379472692	-655.3456584708088	-9.143225249436934	-34.12980270074802	2.064577343087588	0.3840899002857864	0.4591061740311819	-2.952244318416116	0.7196753442840719	0.02855535662946702	-0.35542993693313	-0.345585805372999	-0.345585805372999	1.3216116900457	-0.5318192635326198	0.6130943172629508	0.8605646020668786	-1.963787907583868e-08	1.592139608647913e-08	-4.267093987124824e-09	9.463527917356297e-09	-1.932066764690722e-08	-1.676265198202086e-09	-5.906535076038118e-09
1.07	-0.4860406554558294	-0.09539851743675078	0.7820623223110468	1.237074653079892	-0.2176407824104925	-0.01176969101646226	-0.3493643395847228	0.5247795930887303	0.5247795930887275	-0.04255516952625182	0.03100641181381564	-0.03971034935139023	0.02718907236637335	-0.08493684875298224	0.04572270906545664	-0.02019047868511728	0.111599878891456	-0.140280860557391	-0.04232590986807204	0.4303468244889314	0.1384981777848954	0.1384981777848956	-0.2310739631831835	0.1622294541103577	0.09795801266914655	-0.1141135251316286	-0.2926387409438431	0.08881957403185334	-0.006902773966110497	-0.164623546012072	0.1786945955763972	-0.03002381233390341	0.2540721733505145	13.16062746612956	11.82874993327732	-3.537558049197499	1.521383963771717	-655.3947628472505	-9.083189644327934	-34.09156992288842	2.216526728459279	0.3853246711878012	0.4862807728271019	-3.130219321461818	0.7949789551468029	0.01521065948772048	-0.5946297858010122	-0.3756302686232755	-0.3756302686232219	1.462097909047912	-0.5789169165406508	0.626850498559105	0.93813782212498	-2.109153930807331e-08	1.660329528349221e-08	-1.440081343988005e-09	1.025638734310759e-08	-1.744931292238935e-08	-6.638680365369542e-10	-6.694658639056623e-09
1.08	-0.486775797412877	-0.094921939886367	0.7818852890819253	1.238030256741544	-0.2190026041736028	-0.01219254694048696	-0.3450955335142384	0.5261454228626246	0.5261454228626251	-0.0447904261262667	0.03259912433181885	-0.03869900313211133	0.0260961750204038	-0.06179488153518266	0.04959802410107171	-0.0151656168257332	0.07917836338460739	-0.1319588302350333	-0.04227428755061424	0.4229685221495718	0.1346242041654376	0.1346242041654378	-0.2157414032450137	0.1562419773521131	0.1043439022111974	-0.1043347326780706	-0.2914579503267913	0.08921405389527017	-0.007098710478451549	-0.1658348403361051	0.1787038786305815	-0.02986644041329115	0.2525554713277612	13.16778278287127	11.72719739764485	-3.484869672790535	1.599697560094601	-655.5074097975114	-9.033976591704169	-34.05435838366018	2.420544835352843	0.3903741147070265	0.5197388445333142	-3.363261670988253	0.8692560179877241	-0.006236627664495014	-0.8904708915524868	-0.3978623999472711	-0.3978623999472711	1.604780068693139	-0.6170912082201663	0.6522715558504424	1.018002593867363	-2.023458895656235e-08	1.508758832756079e-08	1.781112295318832e-09	9.499653067187045e-09	-1.644863573114986e-08	-1.952635754270695e-09	-6.729556077398114e-09
